<svg width="20px" height="20px" viewBox="0 0 5 20" version="1.1" xmlns="http://www.w3.org/2000/svg" xmlns:xlink="http://www.w3.org/1999/xlink">
    <!-- Generator: Sketch 51.3 (57544) - http://www.bohemiancoding.com/sketch -->
    <desc>Created with Sketch.</desc>
    <defs></defs>
    <g id="Symbols" stroke="none" stroke-width="1" fill="none" fill-rule="evenodd">
        <g id="header" transform="translate(-347.000000, -20.000000)">
            <g id="Group" transform="translate(339.000000, 20.000000)">
                <rect id="Rectangle" fill-rule="nonzero" x="0" y="0" width="20" height="20"></rect>
                <path d="M2.7826087,7.60869565 C3.4492787,7.60869565 4.01449043,7.84057739 4.47826087,8.30434783 C4.9420313,8.76811826 5.17391304,9.33333 5.17391304,10 C5.17391304,10.6376843 4.9420313,11.1956498 4.47826087,11.673913 C4.01449043,12.1521763 3.4492787,12.3913043 2.7826087,12.3913043 C2.1159387,12.3913043 1.55072696,12.1521763 1.08695652,11.673913 C0.623186087,11.1956498 0.391304348,10.6376843 0.391304348,10 C0.391304348,9.33333 0.623186087,8.76811826 1.08695652,8.30434783 C1.55072696,7.84057739 2.1159387,7.60869565 2.7826087,7.60869565 L2.7826087,7.60869565 Z M10.3913043,7.60869565 C11.0579743,7.60869565 11.6231861,7.84057739 12.0869565,8.30434783 C12.550727,8.76811826 12.7826087,9.33333 12.7826087,10 C12.7826087,10.6376843 12.5434807,11.1956498 12.0652174,11.673913 C11.5869541,12.1521763 11.0289887,12.3913043 10.3913043,12.3913043 C9.75362,12.3913043 9.19565457,12.1521763 8.7173913,11.673913 C8.23912804,11.1956498 8,10.6376843 8,10 C8,9.33333 8.23188174,8.76811826 8.69565217,8.30434783 C9.15942261,7.84057739 9.72463435,7.60869565 10.3913043,7.60869565 L10.3913043,7.60869565 Z M18,7.60869565 C18.66667,7.60869565 19.2318817,7.84057739 19.6956522,8.30434783 C20.1594226,8.76811826 20.3913043,9.33333 20.3913043,10 C20.3913043,10.6376843 20.1594226,11.1956498 19.6956522,11.673913 C19.2318817,12.1521763 18.66667,12.3913043 18,12.3913043 C17.33333,12.3913043 16.7681183,12.1521763 16.3043478,11.673913 C15.8405774,11.1956498 15.6086957,10.6376843 15.6086957,10 C15.6086957,9.33333 15.8405774,8.76811826 16.3043478,8.30434783 C16.7681183,7.84057739 17.33333,7.60869565 18,7.60869565 L18,7.60869565 Z" id="Icons/More" fill="#666666" transform="translate(10.391304, 10.000000) rotate(90.000000) translate(-10.391304, -10.000000) "></path>
            </g>
        </g>
    </g>
</svg>