<svg height="18px" viewBox="0 0 20 18" version="1.1" xmlns="http://www.w3.org/2000/svg" xmlns:xlink="http://www.w3.org/1999/xlink">
    <!-- Generator: Sketch 51.3 (57544) - http://www.bohemiancoding.com/sketch -->
    <desc>Created with Sketch.</desc>
    <defs></defs>
    <g id="Symbols" stroke="none" stroke-width="1" fill="none" fill-rule="evenodd">
        <g id="Group-3" transform="translate(0.000000, -1.000000)">
            <rect id="Rectangle-4" fill-rule="nonzero" x="0" y="0" width="20" height="20"></rect>
            <path d="M20,15.95 L20,17.65 C20,18.1148437 19.6223958,18.5 19.1666667,18.5 L0.833333333,18.5 C0.377604167,18.5 0,18.1148437 0,17.65 L0,15.95 C0,15.4851562 0.377604167,15.1 0.833333333,15.1 L19.1666667,15.1 C19.6223958,15.1 20,15.4851562 20,15.95 Z M20,9.15 L20,10.85 C20,11.3148438 19.6223958,11.7 19.1666667,11.7 L0.833333333,11.7 C0.377604167,11.7 0,11.3148438 0,10.85 L0,9.15 C0,8.68515625 0.377604167,8.3 0.833333333,8.3 L19.1666667,8.3 C19.6223958,8.3 20,8.68515625 20,9.15 Z M20,2.35 L20,4.05 C20,4.51484375 19.6223958,4.9 19.1666667,4.9 L0.833333333,4.9 C0.377604167,4.9 0,4.51484375 0,4.05 L0,2.35 C0,1.88515625 0.377604167,1.5 0.833333333,1.5 L19.1666667,1.5 C19.6223958,1.5 20,1.88515625 20,2.35 Z" id="Icons/Menu-hamburger-Copy" fill="#FD746C"></path>
        </g>
    </g>
</svg>