<svg width="106px" height="168px" viewBox="0 0 106 168" version="1.1" xmlns="http://www.w3.org/2000/svg" xmlns:xlink="http://www.w3.org/1999/xlink">
    <!-- Generator: Sketch 51.3 (57544) - http://www.bohemiancoding.com/sketch -->
    <desc>Created with Sketch.</desc>
    <defs>
        <linearGradient x1="-2.22044605e-14%" y1="50%" x2="99.4084176%" y2="50%" id="linearGradient-1">
            <stop stop-color="#FD746C" offset="0%"></stop>
            <stop stop-color="#FF9068" offset="100%"></stop>
        </linearGradient>
        <path d="M76,0 C63.379435,0 52.7015763,8.31924403 49.140625,19.7821388 C38.7394038,22.2594427 31,31.6304714 31,42.8026011 C31,54.3194723 39.2383638,63.8883393 50.125,65.9990724 L50.125,83.3524996 L101.875,83.3524996 L101.875,65.9990724 C112.761625,63.8883393 121,54.3194723 121,42.8026011 C121,31.6304714 113.260563,22.2594427 102.859375,19.7821388 C99.2984125,8.31924403 88.6205875,0 76,0 Z M50.125,87.8580401 L101.875,87.8580401 L101.875,96.8691212 L50.125,96.8691212 L50.125,87.8580401 Z M73.9357341,129.188203 C63.0684928,136.150748 41.671852,137.041954 41.5029312,123.729567 C41.3903173,121.334451 43.7552091,116.265718 50.624657,118.883635 C46.2327149,118.660834 43.6425952,119.830541 44.0930508,123.061163 C45.2191898,128.854 52.2012516,136.262149 67.6856627,123.172563 C69.543792,121.612953 72.5280603,121.724354 74.2172688,123.395365 C75.9627842,125.066376 75.8501703,127.684293 73.9357341,129.188203 Z M78.2150622,129.188203 C76.3569329,127.684293 76.244319,125.066376 77.8772205,123.339664 C79.566429,121.668653 82.5506973,121.557253 84.4088267,123.116863 C99.8932378,136.206448 106.8753,128.7983 108.001439,123.005462 C108.451894,119.830541 105.918081,118.660834 101.526139,118.883635 C108.395587,116.265718 110.760479,121.334451 110.647865,123.729567 C110.535251,136.986253 89.0823035,136.150748 78.2150622,129.188203 Z M76.0922587,152 C73.3308349,152 71.0922587,149.761424 71.0922587,147 C71.0922587,144.238576 73.3308349,142 76.0922587,142 C78.8536824,142 81.0922587,144.238576 81.0922587,147 C81.0922587,149.761424 78.8536824,152 76.0922587,152 Z" id="path-2"></path>
        <filter x="-13.9%" y="-7.6%" width="127.8%" height="116.4%" filterUnits="objectBoundingBox" id="filter-3">
            <feOffset dx="0" dy="1" in="SourceAlpha" result="shadowOffsetOuter1"></feOffset>
            <feGaussianBlur stdDeviation="4" in="shadowOffsetOuter1" result="shadowBlurOuter1"></feGaussianBlur>
            <feColorMatrix values="0 0 0 0 0   0 0 0 0 0   0 0 0 0 0  0 0 0 0.1 0" type="matrix" in="shadowBlurOuter1"></feColorMatrix>
        </filter>
    </defs>
    <g id="MVP" stroke="none" stroke-width="1" fill="none" fill-rule="evenodd">
        <g id="Loading" transform="translate(-134.000000, -137.000000)" fill-rule="nonzero">
            <g id="logo/icon" transform="translate(111.000000, 144.000000)">
                <g id="Combined-Shape-Copy-4">
                    <use fill="black" fill-opacity="1" filter="url(#filter-3)" xlink:href="#path-2"></use>
                    <use fill="url(#linearGradient-1)" xlink:href="#path-2"></use>
                </g>
            </g>
        </g>
    </g>
</svg>