
<svg width="216px" height="86px" viewBox="0 0 216 86" version="1.1" xmlns="http://www.w3.org/2000/svg" xmlns:xlink="http://www.w3.org/1999/xlink">
    <defs>
        <path d="M21.0280374,0 C15.1305771,0 10.1409235,3.8312308 8.47692757,9.11019552 C3.61654381,10.2510591 0,14.5666645 0,19.7117242 C0,25.0155465 3.84970269,29.4222615 8.93691589,30.3943096 L8.93691589,38.3860196 L33.1191589,38.3860196 L33.1191589,30.3943096 C38.2063668,29.4222615 42.0560748,25.0155465 42.0560748,19.7117242 C42.0560748,14.5666645 38.4395152,10.2510591 33.5791472,9.11019552 C31.915146,3.8312308 26.9255082,0 21.0280374,0 Z M8.93691589,40.4609395 L33.1191589,40.4609395 L33.1191589,44.6107795 L8.93691589,44.6107795 L8.93691589,40.4609395 Z M20.0634271,59.494567 C14.985277,62.7010024 4.98684673,63.1114261 4.90791175,56.9807216 C4.85528844,55.8777078 5.9603781,53.5434228 9.17040045,54.7490426 C7.11809108,54.6464366 5.90775478,55.1851178 6.11824805,56.6729038 C6.64448122,59.3406581 9.9071269,62.7523053 17.142833,56.7242068 C18.0111178,56.0059652 19.4056357,56.0572682 20.1949854,56.8268127 C21.0106468,57.5963572 20.9580235,58.8019769 20.0634271,59.494567 Z M22.0631132,59.494567 C21.1948285,58.8019769 21.1422051,57.5963572 21.9052432,56.8011612 C22.694593,56.0316167 24.0891109,55.9803137 24.9573956,56.6985553 C32.1931018,62.7266538 35.4557474,59.3150066 35.9819806,56.6472523 C36.1924739,55.1851178 35.0084492,54.6464366 32.9561399,54.7490426 C36.1661622,53.5434228 37.2712519,55.8777078 37.2186286,56.9807216 C37.1660053,63.0857746 27.1412633,62.7010024 22.0631132,59.494567 Z M21.0711489,70 C19.780764,70 18.7347003,68.9690767 18.7347003,67.6973684 C18.7347003,66.4256601 19.780764,65.3947368 21.0711489,65.3947368 C22.3615338,65.3947368 23.4075975,66.4256601 23.4075975,67.6973684 C23.4075975,68.9690767 22.3615338,70 21.0711489,70 Z" id="path-1"></path>
        <filter x="-29.7%" y="-16.4%" width="159.4%" height="135.7%" filterUnits="objectBoundingBox" id="filter-2">
            <feOffset dx="0" dy="1" in="SourceAlpha" result="shadowOffsetOuter1"></feOffset>
            <feGaussianBlur stdDeviation="4" in="shadowOffsetOuter1" result="shadowBlurOuter1"></feGaussianBlur>
            <feColorMatrix values="0 0 0 0 0   0 0 0 0 0   0 0 0 0 0  0 0 0 0.1 0" type="matrix" in="shadowBlurOuter1"></feColorMatrix>
        </filter>
        <path d="M68.8234491,48.9590488 C67.8602979,50.3576753 66.7990115,51.4362242 65.6395839,52.194705 C63.1597293,53.8169901 60.7012896,54.6281205 58.2641911,54.6281205 C56.2118977,54.6281205 54.5551231,53.9960709 53.2938177,52.7319526 C52.0325124,51.4678344 51.4018692,49.5716854 51.4018692,47.0434489 C51.4018692,45.990017 51.572891,44.6205761 51.91494,42.9350851 L58.7772619,11.2690809 L68.2690718,10.004969 L60.893679,44.1359914 C60.7226545,44.7680505 60.6371436,45.4422368 60.6371436,46.1585705 C60.6371436,47.001316 60.8402321,47.6017632 61.2464152,47.95993 C61.6525982,48.3180969 62.3259969,48.4971776 63.2666314,48.4971776 C64.5065587,48.4971776 65.6609565,47.9810037 66.7298593,46.9486405 C67.3116378,46.3867496 67.8047514,45.7343659 68.2092037,44.9914826 C68.2063598,44.8552855 68.2049379,44.7176015 68.2049379,44.5784306 C68.2049379,41.6709586 68.7821368,38.4685737 69.9365519,34.9711798 C71.0909669,31.473786 72.9722077,28.4504818 75.5803307,25.9011767 C78.1884536,23.3518715 81.5020027,22.077238 85.5210774,22.077238 C90.22425,22.077238 92.575801,24.0997969 92.575801,28.1449754 C92.575801,30.5046628 91.8917134,32.6746999 90.5235178,34.6551519 C89.1553221,36.6356038 87.3382145,38.2262621 85.0721405,39.4271744 C82.8060665,40.6280868 80.3903823,41.3128072 77.8250154,41.4813563 C77.7395032,42.7454746 77.6967477,43.5882075 77.6967477,44.0095802 C77.6967477,46.0743067 78.0601692,47.4753501 78.7870232,48.2127524 C79.5138771,48.9501547 80.6896526,49.3188504 82.3143849,49.3188504 C84.6232151,49.3188504 86.6006557,48.7921423 88.2467661,47.7387104 C89.6613801,46.8334252 91.1943839,45.5236117 92.8458118,43.8092395 C92.9396035,41.1088602 93.5230008,38.1628646 94.5960172,34.9711798 C95.7718104,31.473786 97.6530512,28.4504818 100.239796,25.9011767 C102.826541,23.3518715 106.108023,22.077238 110.084342,22.077238 C112.649709,22.077238 114.477505,22.6250144 115.567786,23.7205836 C116.658067,24.8161527 117.203199,26.2066619 117.203199,27.892153 C117.203199,29.3669576 116.882533,30.504647 116.241192,31.3052552 C115.59985,32.1058634 114.787496,32.5061616 113.804105,32.5061616 C113.077251,32.5061616 112.329031,32.2533417 111.559421,31.7476944 C112.072494,30.3571643 112.329027,29.1141333 112.329027,28.0185642 C112.329027,27.2179559 112.179383,26.5859063 111.88009,26.1223962 C111.580797,25.6588862 111.131865,25.4271347 110.533279,25.4271347 C109.250596,25.4271347 107.967931,26.4594824 106.685248,28.5242089 C105.402565,30.5889354 104.355056,33.0960657 103.542689,36.045675 C102.730323,38.9952843 102.324146,41.6498928 102.324146,44.0095802 C102.324146,46.0743067 102.687568,47.4753501 103.414422,48.2127524 C104.141276,48.9501547 105.317051,49.3188504 106.941783,49.3188504 C109.250614,49.3188504 111.228054,48.7921423 112.874165,47.7387104 C114.520275,46.6852786 116.326694,45.0840861 118.293475,42.9350851 L118.304321,42.9350851 L125.155797,11.2690809 L134.647607,10.004969 L131.184379,25.9327795 C133.322184,23.573092 135.82338,22.393266 138.688039,22.393266 C140.868601,22.393266 142.600198,22.983179 143.882881,24.1630227 C145.165565,25.3428664 145.806897,27.1336738 145.806897,29.5354985 C145.806897,30.7574795 145.657252,32.1163862 145.35796,33.6122595 C145.058667,35.1081328 144.631112,36.9305426 144.075283,39.0795436 C143.733234,40.3857992 143.423257,41.6604326 143.145342,42.9034823 C142.867427,44.1465319 142.728472,45.1262089 142.728472,45.8425425 C142.728472,46.685288 142.920871,47.338406 143.305676,47.801916 C143.690481,48.2654261 144.353191,48.4971776 145.293826,48.4971776 C146.576509,48.4971776 147.602641,48.0442087 148.372251,47.1382573 C148.864327,46.5590064 149.356399,45.7773561 149.848472,44.7932953 C149.84771,44.7220719 149.847329,44.6504503 149.847329,44.5784306 C149.847329,41.6709586 150.424528,38.4685737 151.578943,34.9711798 C152.733358,31.473786 154.614599,28.4504818 157.222722,25.9011767 C159.830845,23.3518715 163.144394,22.077238 167.163469,22.077238 C171.866641,22.077238 174.218192,24.0997969 174.218192,28.1449754 C174.218192,30.5046628 173.534105,32.6746999 172.165909,34.6551519 C170.797713,36.6356038 168.980606,38.2262621 166.714532,39.4271744 C164.448458,40.6280868 162.032774,41.3128072 159.467407,41.4813563 C159.381894,42.7454746 159.339139,43.5882075 159.339139,44.0095802 C159.339139,46.0743067 159.702561,47.4753501 160.429414,48.2127524 C161.156268,48.9501547 162.332044,49.3188504 163.956776,49.3188504 C166.265606,49.3188504 168.243047,48.7921423 169.889157,47.7387104 C171.535268,46.6852786 173.341686,45.0840861 175.308468,42.9350851 L175.323631,42.9350851 L180.759845,17.6528462 C181.614967,13.6076678 183.122098,10.805581 185.281281,9.24650183 C187.440465,7.68742264 189.824083,6.90789474 192.432206,6.90789474 C194.441743,6.90789474 196.205406,7.55047855 197.723248,8.83566545 C199.24109,10.1208523 200,11.7536473 200,13.7340992 C200,14.7032566 199.935867,15.5670577 199.807598,16.3255287 L196.793307,16.3255287 C196.87882,15.3985086 196.921575,14.829664 196.921575,14.6189776 C196.921575,13.9447812 196.68642,13.4180731 196.216103,13.0388377 C195.745786,12.6596022 195.168587,12.4699873 194.484489,12.4699873 C193.58661,12.4699873 192.710123,12.8597512 191.855001,13.6392908 C190.999879,14.4188304 190.379924,15.7566688 189.995119,17.6528462 L188.904844,22.6460884 L193.586615,22.6460884 L193.137678,25.1743123 L188.391773,25.1743123 L181.01638,59.3053347 C180.161258,63.3926504 178.686194,66.2052714 176.591145,67.7432819 C174.496095,69.2812925 172.144544,70.0502862 169.536421,70.0502862 C167.526884,70.0502862 165.763221,69.4077024 164.245379,68.1225155 C162.727536,66.8373286 161.968627,65.2045337 161.968627,63.2240817 C161.968627,61.4121789 162.438937,59.916328 163.379572,58.7364843 C164.320206,57.5566406 165.538737,56.6191003 167.035201,55.9238353 C168.531665,55.2285702 170.519794,54.5017131 172.999649,53.7432422 L174.388514,47.2840399 C170.254707,52.1801131 165.409302,54.6281205 159.85221,54.6281205 C156.688257,54.6281205 154.229818,53.8169901 152.476817,52.194705 C151.627176,51.4084191 150.983439,50.4068479 150.545604,49.1899827 C149.710775,50.5229915 148.825991,51.5456313 147.891247,52.2579106 C145.817575,53.8380585 143.669113,54.6281205 141.445795,54.6281205 C138.837672,54.6281205 136.924364,53.9434001 135.705815,52.5739386 C134.487266,51.2044772 133.878,49.5084773 133.878,47.4858881 C133.878,46.6010053 133.984889,45.60026 134.19867,44.4836222 C134.41245,43.3669844 134.636917,42.2819658 134.872075,41.2285339 C135.107234,40.1751021 135.267567,39.5009158 135.353079,39.2059548 C135.695128,37.7311502 136.015794,36.277436 136.315087,34.8447686 C136.61438,33.4121013 136.764024,32.2533436 136.764024,31.3684608 C136.764024,29.2194598 135.994425,28.1449754 134.455205,28.1449754 C133.343546,28.1449754 132.36017,28.6822176 131.505048,29.7567181 C130.649926,30.8312186 129.965838,32.232262 129.452765,33.9598903 L125.091663,54.2488869 L115.856389,54.2488869 L117.35985,47.3002193 C113.229033,52.1855061 108.388185,54.6281205 102.837217,54.6281205 C99.6732646,54.6281205 97.2148249,53.8169901 95.4618242,52.194705 C94.1446235,50.9757237 93.322301,49.2393174 92.9948456,46.9854537 C88.8070628,52.0805855 83.8787515,54.6281205 78.2098185,54.6281205 C75.0458661,54.6281205 72.5874264,53.8169901 70.8344258,52.194705 C69.9316257,51.3592238 69.2613013,50.2806752 68.8234491,48.9590488 Z M168.061343,64.4249881 C169.771587,64.4249881 170.990118,62.781659 171.716972,59.4949515 L172.550712,55.8290269 C170.284638,56.5874978 168.542353,57.4618332 167.323803,58.4520592 C166.105254,59.4422851 165.495989,60.7379869 165.495989,62.3392034 C165.495989,62.8448507 165.752521,63.3188879 166.265595,63.7613293 C166.778668,64.2037707 167.377245,64.4249881 168.061343,64.4249881 Z M159.980477,38.4474877 C161.562454,38.3632131 163.069584,37.8154368 164.501914,36.8041422 C165.934244,35.7928475 167.088642,34.5076799 167.965142,32.9486007 C168.841642,31.3895215 169.279886,29.7461925 169.279886,28.0185642 C169.279886,26.2909359 168.745442,25.4271347 167.67654,25.4271347 C166.137319,25.4271347 164.630189,26.7544389 163.155103,29.4090873 C161.680017,32.0637356 160.621819,35.0765056 159.980477,38.4474877 Z M78.3380862,38.4474877 C79.9200624,38.3632131 81.4271929,37.8154368 82.8595227,36.8041422 C84.2918525,35.7928475 85.4462502,34.5076799 86.3227506,32.9486007 C87.1992509,31.3895215 87.6374945,29.7461925 87.6374945,28.0185642 C87.6374945,26.2909359 87.1030511,25.4271347 86.0341483,25.4271347 C84.4949281,25.4271347 82.9877977,26.7544389 81.5127118,29.4090873 C80.0376259,32.0637356 78.9794279,35.0765056 78.3380862,38.4474877 Z" id="path-3"></path>
        <filter x="-8.4%" y="-18.2%" width="116.8%" height="139.6%" filterUnits="objectBoundingBox" id="filter-4">
            <feOffset dx="0" dy="1" in="SourceAlpha" result="shadowOffsetOuter1"></feOffset>
            <feGaussianBlur stdDeviation="4" in="shadowOffsetOuter1" result="shadowBlurOuter1"></feGaussianBlur>
            <feColorMatrix values="0 0 0 0 0   0 0 0 0 0   0 0 0 0 0  0 0 0 0.1 0" type="matrix" in="shadowBlurOuter1"></feColorMatrix>
        </filter>
    </defs>
    <g id="Symbols" stroke="none" stroke-width="1" fill="none" fill-rule="evenodd">
        <g id="desktop-menu" transform="translate(-80.000000, -17.000000)">
            <g id="logo/full" transform="translate(88.000000, 24.000000)">
                <g id="Combined-Shape-Copy-3" fill-rule="nonzero">
                    <use fill="black" fill-opacity="1" filter="url(#filter-2)" xlink:href="#path-1"></use>
                    <use fill="#FFFFFF" xlink:href="#path-1"></use>
                </g>
                <g id="lechef-copy-3">
                    <use fill="black" fill-opacity="1" filter="url(#filter-4)" xlink:href="#path-3"></use>
                    <use fill="#FFFFFF" fill-rule="evenodd" xlink:href="#path-3"></use>
                </g>
            </g>
        </g>
    </g>
</svg>