<svg width="16px" height="16px" viewBox="0 0 16 16" version="1.1" xmlns="http://www.w3.org/2000/svg" xmlns:xlink="http://www.w3.org/1999/xlink">
    <!-- Generator: Sketch 51.3 (57544) - http://www.bohemiancoding.com/sketch -->
    <desc>Created with Sketch.</desc>
    <defs></defs>
    <g id="Symbols" stroke="none" stroke-width="1" fill="none" fill-rule="evenodd">
        <g id="Input/Add-Item" transform="translate(-67.000000, -19.000000)" fill-rule="nonzero">
            <g id="icon/plus-copy" transform="translate(67.000000, 19.000000)">
                <rect id="Rectangle-3-Copy" x="0" y="0" width="16" height="16"></rect>
                <path d="M6.8,6.8 L6.8,1.8 C6.8,1.24771525 7.24771525,0.8 7.8,0.8 L8.2,0.8 C8.75228475,0.8 9.2,1.24771525 9.2,1.8 L9.2,6.8 L14.2,6.8 C14.7522847,6.8 15.2,7.24771525 15.2,7.8 L15.2,8.2 C15.2,8.75228475 14.7522847,9.2 14.2,9.2 L9.2,9.2 L9.2,14.2 C9.2,14.7522847 8.75228475,15.2 8.2,15.2 L7.8,15.2 C7.24771525,15.2 6.8,14.7522847 6.8,14.2 L6.8,9.2 L1.8,9.2 C1.24771525,9.2 0.8,8.75228475 0.8,8.2 L0.8,7.8 C0.8,7.24771525 1.24771525,6.8 1.8,6.8 L6.8,6.8 Z" id="Combined-Shape" fill="#000000"></path>
            </g>
        </g>
    </g>
</svg>